HIERARCHY
ROOT hip
{
	OFFSET 0.000000 0.000000 0.000000 
	CHANNELS 6 Xposition Yposition Zposition Xrotation Zrotation Yrotation
	JOINT abdomen
	{
		OFFSET 0.000000 3.402643 0.000000 
		CHANNELS 3 Xrotation Zrotation Yrotation
		JOINT chest
		{
			OFFSET 0.000000 8.438565 -0.680529 
			CHANNELS 3 Xrotation Zrotation Yrotation
			JOINT neck
			{
				OFFSET 0.000000 10.207942 -0.272212 
				CHANNELS 3 Xrotation Zrotation Yrotation
				JOINT head
				{
					OFFSET 0.000000 3.130431 0.000000 
					CHANNELS 3 Xrotation Zrotation Yrotation
					End Site
					{
						OFFSET 0.000000 3.130435 0.000000 
					}
				}
			}
			JOINT lCollar
			{
				OFFSET 3.470700 6.669187 -0.816635 
				CHANNELS 3 Yrotation Zrotation Xrotation
				JOINT lShldr
				{
					OFFSET 3.198488 0.000000 0.000000 
					CHANNELS 3 Zrotation Yrotation Xrotation
					JOINT lForeArm
					{
						OFFSET 10.139888 0.000000 0.000000 
						CHANNELS 3 Yrotation Zrotation Xrotation
						JOINT lHand
						{
							OFFSET 8.370511 0.000000 0.000000 
							CHANNELS 3 Zrotation Yrotation Xrotation
							End Site
							{
								OFFSET 4.083176 0.000000 0.000000 
							}
						}
					}
				}
			}
			JOINT rCollar
			{
				OFFSET -3.470700 6.669187 -0.816635 
				CHANNELS 3 Yrotation Zrotation Xrotation
				JOINT rShldr
				{
					OFFSET -3.198488 0.000000 0.000000 
					CHANNELS 3 Zrotation Yrotation Xrotation
					JOINT rForeArm
					{
						OFFSET -10.139888 0.000000 0.000000 
						CHANNELS 3 Yrotation Zrotation Xrotation
						JOINT rHand
						{
							OFFSET -8.370511 0.000000 0.000000 
							CHANNELS 3 Zrotation Yrotation Xrotation
							End Site
							{
								OFFSET -4.083176 0.000000 0.000000 
							}
						}
					}
				}
			}
		}
	}
	JOINT lThigh
	{
		OFFSET 5.308129 -1.633274 1.361059 
		CHANNELS 3 Xrotation Zrotation Yrotation
		JOINT lShin
		{
			OFFSET -2.041588 -20.007561 0.000000 
			CHANNELS 3 Xrotation Zrotation Yrotation
			JOINT lFoot
			{
				OFFSET 0.000000 -19.190928 -1.224953 
				CHANNELS 3 Xrotation Yrotation Zrotation
				End Site
				{
					OFFSET 0.000000 -2.449906 4.627600 
				}
			}
		}
	}
	JOINT rThigh
	{
		OFFSET -5.308129 -1.633274 1.361059 
		CHANNELS 3 Xrotation Zrotation Yrotation
		JOINT rShin
		{
			OFFSET 2.041588 -20.007561 0.000000 
			CHANNELS 3 Xrotation Zrotation Yrotation
			JOINT rFoot
			{
				OFFSET 0.000000 -19.190928 -1.224953 
				CHANNELS 3 Xrotation Yrotation Zrotation
				End Site
				{
					OFFSET 0.000000 -2.449906 4.627600 
				}
			}
		}
	}
}
MOTION
Frames: 18
Frame Time: 0.033333
-9.707550 49.394592 93.427284 12.558594 7.187500 -50.771484 59.430130 -12.240178 -17.383978 -17.685547 7.812500 3.662110 51.063168 8.107644 2.471410 -71.367188 -16.054686 37.624252 2.000000 -2.000000 0.000000 -82.421875 -32.001953 -25.591114 -47.231960 -1.746014 -1.811240 -24.644592 41.714779 -60.532516 -2.000000 2.000000 0.000000 57.412113 -20.771486 12.789506 117.990959 -1.377201 -2.941581 -34.577877 -71.425095 20.009184 -41.219124 34.000343 25.360676 11.010001 -5.168535 -1.368546 7.253005 9.119660 -1.313476 -30.018408 -4.286968 -22.217552 32.359585 4.296395 2.797894 -14.489840 -8.165072 0.303763 
-9.530513 49.300064 94.900352 12.568359 7.353515 -51.083984 60.184227 -12.484418 -17.457079 -17.666018 8.164063 3.740235 51.063168 8.107644 2.471410 -72.509766 -15.156250 38.027344 2.000000 -2.000000 0.000000 -81.416016 -33.037109 -31.392040 -48.123825 -2.007459 -1.932848 -23.659538 42.695263 -56.908310 -2.000000 2.000000 0.000000 57.294918 -17.724609 12.236327 117.629639 -1.367451 -2.941018 -37.247765 -71.009399 22.001802 -41.287708 33.922798 25.070208 7.616469 -5.201772 -1.106472 6.332197 8.588261 -0.831487 -29.479469 -5.730919 -21.388491 33.229485 4.227988 2.703776 -14.938585 -7.243970 0.865692 
-9.361763 49.339447 96.430374 12.587891 7.548829 -51.570980 60.821846 -12.823899 -17.670805 -17.646484 8.505859 3.818359 51.063168 8.107644 2.471410 -73.837891 -14.404295 38.366714 2.000000 -2.000000 0.000000 -79.267578 -34.482422 -35.767246 -48.458824 -1.700610 -2.039095 -23.391729 43.440765 -54.882744 -2.000000 2.000000 0.000000 58.173828 -13.193360 11.582030 116.926254 -1.358267 -2.930709 -38.034924 -71.199280 22.526674 -43.767471 34.136673 23.930838 14.336409 -5.077517 -1.666710 4.361982 9.139299 -0.998567 -28.739489 -7.118930 -20.082813 32.871628 4.266459 2.656852 -14.790756 -7.128123 1.839020 
-9.246044 49.481255 97.962708 12.587891 7.714845 -52.244781 61.413605 -13.169292 -17.609865 -17.626955 9.023438 3.925782 51.063168 8.107644 2.471410 -75.009766 -13.847656 38.701172 2.000000 -2.000000 0.000000 -74.541016 -36.093754 -39.482422 -47.593784 -1.766651 -1.829590 -22.986603 44.153526 -53.858540 -2.000000 2.000000 0.000000 58.974613 -8.281250 10.965390 116.056877 -1.329583 -2.919271 -38.374603 -70.967270 22.392715 -44.696121 34.197140 23.414459 18.406176 -4.960352 -1.804175 3.792780 9.471828 -0.924047 -27.460691 -8.134742 -18.747776 31.095581 4.364117 2.538965 -14.082973 -8.007619 2.194074 
-9.159350 49.701839 99.586922 12.597656 7.871094 -52.908817 62.012154 -13.324585 -17.813927 -17.617188 9.199220 3.956640 51.063168 8.107644 2.471410 -76.044922 -13.486328 39.062496 2.000000 -2.000000 0.000000 -68.232422 -37.236332 -43.052784 -46.534538 -1.952511 -1.662257 -23.826363 44.908089 -55.119736 -2.000000 2.000000 0.000000 59.863281 -3.388672 10.487705 115.343727 -1.320399 -2.908962 -39.183750 -71.149040 22.946341 -44.732079 33.507805 24.069880 21.571465 -4.941542 -2.073909 2.437387 9.838187 -1.027679 -25.775726 -9.322303 -17.431198 28.819748 4.476090 2.372195 -12.731209 -8.195698 2.515616 
-9.074609 49.890923 101.377289 12.607423 8.232422 -53.533096 62.431290 -13.596728 -17.866684 -17.597656 9.541017 4.218751 51.063168 8.107644 2.471410 -77.021484 -13.779295 39.333614 2.000000 -2.000000 0.000000 -63.330082 -38.242188 -45.605469 -45.648235 -1.810838 -1.748775 -24.555971 45.425892 -56.067368 -2.000000 2.000000 0.000000 60.537106 0.107422 9.912114 114.991905 -1.311214 -2.898653 -39.212749 -70.884369 22.941156 -44.149208 32.859089 24.819578 23.884256 -4.785365 -2.441750 1.088160 10.422969 -0.897652 -23.435434 -10.545246 -17.035797 25.663822 4.609201 2.309391 -10.931733 -7.578887 1.757048 
-8.944079 50.127262 103.274704 12.617188 8.398438 -54.208984 62.812447 -13.706349 -17.909237 -17.587891 9.707031 4.257813 51.063168 8.107644 2.471410 -77.812500 -14.765622 39.499466 2.000000 -2.000000 0.000000 -59.394531 -39.375000 -48.007809 -45.835274 -1.990308 -1.806728 -24.793493 45.803699 -57.162369 -2.000000 2.000000 0.000000 60.927734 2.119140 8.378906 114.998642 -1.384857 -3.147365 -38.341251 -70.877274 22.010244 -43.063053 31.829321 25.855766 25.084398 -4.736681 -2.327183 0.961816 10.824418 -0.830589 -20.317011 -11.644758 -18.162743 20.552782 4.826690 1.698417 -7.408184 -6.159535 0.717495 
-8.826466 50.332085 104.954590 12.617188 8.574219 -54.882816 63.239376 -13.892326 -18.114273 -17.578125 9.882814 4.287109 51.063168 8.107644 2.471410 -78.593750 -15.732420 39.892582 2.000000 -2.000000 0.000000 -57.031250 -40.732426 -48.912624 -46.352180 -1.793050 -1.779152 -25.464138 46.017643 -58.800690 -2.000000 2.000000 0.000000 61.386723 2.099609 6.982780 115.534401 -1.164005 -3.075924 -37.928337 -71.273628 21.698822 -41.648228 30.864454 27.732069 26.869097 -4.752285 -2.488238 -1.867790 10.902501 -1.031513 -16.375141 -12.741223 -20.200924 14.192716 5.007214 1.384232 -3.214663 -4.207398 -0.719557 
-8.749409 50.418747 106.653671 12.617188 8.730469 -55.537109 63.239376 -13.892326 -18.114273 -17.578125 9.882814 4.287109 51.063168 8.107644 2.471410 -78.779297 -16.503906 40.117188 2.000000 -2.000000 0.000000 -56.533203 -41.337894 -48.375591 -47.590549 -1.945613 -1.711555 -25.831844 45.724976 -60.955471 -2.000000 2.000000 0.000000 61.474613 0.820313 5.654438 115.870201 -1.361089 -2.881981 -36.002136 -71.106911 20.714895 -39.772091 29.689350 29.471809 27.710154 -4.634401 -2.541184 -3.987594 10.737311 -0.924921 -11.259617 -12.821602 -22.408564 4.843750 5.204907 0.573070 2.076842 -2.380168 -2.979825 
-8.743834 50.056355 108.369987 12.626954 8.916017 -56.189892 63.286388 -13.860592 -18.457430 -17.753906 9.892580 4.082031 51.063168 8.107644 2.471410 -78.505859 -16.904297 40.527340 2.000000 -2.000000 0.000000 -58.935551 -40.507813 -44.863281 -49.529579 -1.712712 -1.910975 -24.858953 44.437279 -62.950630 -2.000000 2.000000 0.000000 61.777340 -2.167969 4.970703 116.221764 -1.361089 -2.881981 -33.142971 -70.486343 18.892511 -37.985584 28.644817 31.718853 28.422768 -4.591018 -2.784112 -6.680098 10.202181 -0.337311 -0.832476 -10.266337 -25.704882 -14.806973 5.120568 -1.130618 12.504900 -0.919943 -5.802534 
-8.840537 50.395111 110.059921 12.441407 8.906250 -56.932083 62.897552 -13.687141 -18.531595 -17.773438 9.550781 4.003906 51.063168 8.107644 2.471410 -77.832031 -17.216797 41.113281 2.000000 -2.000000 0.000000 -62.539063 -39.033207 -40.429688 -51.808735 -1.828485 -2.051194 -24.057268 43.096539 -65.556328 -2.000000 2.000000 0.000000 61.699215 -5.302735 4.169922 116.397820 -1.360525 -2.891726 -30.091215 -69.750595 17.179533 -35.888660 27.470648 33.532001 28.238554 -4.605986 -2.597519 -7.774704 9.754342 -0.434455 -5.195252 -9.740885 -28.329435 -8.302429 5.200039 -0.543867 9.878652 -4.597042 -7.506865 
-9.014911 50.670845 111.699997 12.460938 9.091797 -57.431644 62.294147 -13.362976 -18.618525 -17.968750 9.218750 3.896484 51.063168 8.107644 2.471410 -76.748047 -17.460936 41.845703 2.000000 -2.000000 0.000000 -66.337891 -37.070316 -36.132813 -54.271538 -1.675910 -2.118765 -23.285980 41.552151 -68.521187 -2.000000 2.000000 0.000000 61.425785 -8.974610 4.012148 116.398102 -1.350211 -2.900908 -27.187943 -68.824257 15.934259 -33.554573 25.976105 35.900356 27.370192 -4.650287 -2.536035 -8.860196 9.135183 -0.030408 -13.984080 -9.735656 -30.601656 5.192808 5.203002 0.134384 3.695081 -12.939448 -6.088623 
-9.278377 50.521168 113.278595 12.285157 9.277345 -57.928112 61.706013 -12.934608 -18.849316 -17.988283 8.867188 3.652344 51.063168 8.107644 2.471410 -75.673828 -17.705078 42.763676 2.000000 -2.000000 0.000000 -70.371094 -34.541016 -31.562498 -56.735252 -1.613347 -2.220200 -22.479980 39.988106 -70.981590 -2.000000 2.000000 0.000000 61.298832 -13.232422 3.835657 116.584213 -1.339333 -2.919835 -23.462973 -67.827499 13.753426 -30.897532 24.331358 38.142986 26.345827 -4.703681 -2.589450 -10.331503 8.484622 0.238255 -20.487259 -9.119740 -32.228527 14.371368 4.998539 1.407532 -1.529195 -18.003860 -5.258461 
-9.614536 50.765373 114.741508 12.089843 9.257812 -58.330082 60.747082 -12.568226 -19.053831 -18.193359 8.359375 3.525391 51.063168 8.107644 2.471410 -74.375000 -17.812500 43.535156 2.000000 -2.000000 0.000000 -74.228516 -31.884768 -27.651642 -58.659660 -1.409183 -2.241889 -21.732136 38.660702 -72.494034 -2.000000 2.000000 0.000000 61.113281 -16.845701 3.932719 116.760269 -1.338768 -2.929581 -21.066584 -67.092674 12.667719 -28.436136 22.520924 39.769985 24.028900 -4.796521 -2.242181 -9.559355 7.456850 -0.412478 -21.951954 -7.234940 -31.862331 15.073685 4.998349 1.446071 -1.898285 -17.439489 -4.433208 
-9.934948 51.135647 116.083817 11.933594 9.453125 -58.474957 59.982761 -12.177658 -19.239700 -18.232424 7.675781 3.203125 51.063168 8.107644 2.471410 -73.085938 -17.919920 44.326172 2.000000 -2.000000 0.000000 -77.343750 -29.169924 -25.126955 -60.238163 -1.363733 -2.469677 -22.339069 37.708115 -72.387383 -2.000000 2.000000 0.000000 60.449215 -20.849607 4.414062 116.936584 -1.347389 -2.949636 -18.606871 -66.187485 11.661835 -25.839788 20.653795 41.197590 22.089413 -4.957087 -2.110119 -10.035892 7.350189 -0.378230 -22.633505 -4.460058 -30.851309 13.306952 5.027858 1.127964 -0.835599 -15.431249 -3.638188 
-10.364964 51.450768 117.203972 11.552734 9.296875 -58.417973 59.009830 -11.599101 -19.455053 -18.427734 7.158204 3.077389 51.063168 8.107644 2.471410 -72.294922 -17.734375 45.000000 2.000000 -2.000000 0.000000 -80.966797 -26.718750 -23.486328 -61.467564 -1.146418 -2.433427 -23.743149 36.981285 -70.952065 -2.000000 2.000000 0.000000 59.931644 -24.208984 5.201076 117.112648 -1.337075 -2.958817 -18.021574 -65.667191 12.181744 -23.387909 18.674732 42.130676 19.443138 -4.972898 -1.901682 -9.048443 7.086350 -0.330736 -22.328115 -1.617106 -29.210360 10.130160 5.152851 0.388146 1.115919 -12.783066 -2.695116 
-10.868682 51.631973 118.096146 11.025392 9.140626 -57.986729 58.230579 -11.183224 -19.682741 -18.457033 6.484375 2.763672 51.063168 8.107644 2.471410 -71.464844 -17.382811 45.465836 2.000000 -2.000000 0.000000 -83.857422 -24.130859 -21.894533 -61.819401 -1.137235 -2.443740 -24.606480 36.486046 -69.887985 -2.000000 2.000000 0.000000 59.257813 -27.382813 6.294339 117.461510 -1.166993 -3.193235 -16.914127 -65.323242 11.547440 -20.810181 16.909679 42.839619 16.485100 -5.073382 -1.611588 -7.936029 6.649441 -0.173363 -21.716677 1.074687 -28.192711 7.135684 5.155586 0.577219 3.204195 -9.387523 -2.142780 
-11.431904 51.616211 118.749969 10.292969 8.798827 -57.470699 57.497898 -10.924210 -19.909611 -18.662109 5.966797 2.637734 51.063168 8.107644 2.471410 -70.712891 -17.353514 45.722660 2.000000 -2.000000 0.000000 -85.527344 -22.060547 -19.827885 -61.291767 -1.156167 -2.432860 -24.998510 36.301125 -70.549042 -2.000000 2.000000 0.000000 58.583988 -30.107422 7.915021 117.818451 -1.166260 -3.036943 -18.555717 -65.198883 12.707778 -18.730486 15.468753 43.000126 14.701091 -5.121558 -1.477705 -7.042550 6.249001 -0.139490 -20.848989 2.880369 -26.874094 4.669897 5.231803 0.530642 4.192515 -5.799640 -1.137212 
